Coordinates
version=1
nRows=10
nColumns=34
inDegrees=yes

Units are S.I. units (second, meters, Newtons, ...)
If the header above contains a line with 'inDegrees', this indicates whether rotational values are in degrees (yes) or radians (no).

endheader
time	pelvis_tilt	pelvis_list	pelvis_rotation	pelvis_tx	pelvis_ty	pelvis_tz	hip_flexion_r	hip_adduction_r	hip_rotation_r	knee_angle_r	ankle_angle_r	subtalar_angle_r	mtp_angle_r	hip_flexion_l	hip_adduction_l	hip_rotation_l	knee_angle_l	ankle_angle_l	subtalar_angle_l	mtp_angle_l	lumbar_extension	lumbar_bending	lumbar_rotation	arm_flex_r	arm_add_r	arm_rot_r	elbow_flex_r	pro_sup_r	arm_flex_l	arm_add_l	arm_rot_l	elbow_flex_l	pro_sup_l
      0.00000000	    -20.38983141	     17.60979474	     29.64438017	      2.56155725	      1.24399886	      0.43521494	      3.75950501	    -23.98523820	     25.90408987	      9.95061812	    -29.68839254	     31.59162016	      0.00000000	     66.71324258	     14.74369541	    -36.76719941	     68.71586900	      8.79864328	    -19.50920960	      0.00000000	    -10.87945429	    -34.93374497	    -12.70583936	     44.83686720	     42.28804005	     19.12352042	     73.75932739	    103.75584682	    113.95729392	    -41.92703622	     67.01151784	     65.08264265	     39.99814044
      0.01666670	    -19.72694455	     17.99930685	     24.04789074	      2.56060309	      1.23888884	      0.42805253	      5.41815518	    -23.27536960	     30.89162447	      7.06014892	    -34.82247607	     31.28650456	      0.00000000	     70.14038599	     11.45598126	    -39.99999995	     74.64928901	      3.31101371	    -30.80146964	      0.00000000	     -8.48774908	    -35.68446443	    -12.71700718	     61.21786940	     48.81447951	     16.07111101	     57.44345027	     93.36303733	    129.23749726	    -45.59999464	     83.31815308	     51.65968259	     24.03085676
      0.03333330	    -19.35501889	     15.78881105	     21.98466113	      2.54922786	      1.21562365	      0.41412930	      4.79449254	    -21.30788994	     33.88149722	      5.21410991	    -40.11465049	     30.98916210	      0.00000000	     77.05960543	      9.77600284	    -39.99999995	     80.52896065	      0.52387389	    -35.00000000	      0.00000000	     -7.81744718	    -33.98430273	    -12.00169059	     78.78167212	     51.20651672	      8.37075324	     47.56237186	     90.04966419	    137.41864105	    -42.60533760	     91.73944289	     42.18928526	     21.48574638
      0.05000000	    -18.98548165	     14.48809144	     20.00987760	      2.54076607	      1.20294599	      0.40412962	      5.13381764	    -19.58124446	     37.33461038	      4.68980257	    -42.13071650	     30.88936054	      0.00000000	     82.78864702	      7.26471876	    -39.99999995	     85.41024569	     -1.64143582	    -35.00000000	      0.00000000	     -8.06091221	    -33.38376860	     -9.41383275	     94.22537644	     49.70238491	      5.67141433	     41.15252153	     75.45353848	    140.80541608	    -38.84720045	     94.51331637	     39.32834300	      4.08418817
      0.06666670	    -19.23573213	     12.52573505	     19.93598677	      2.52579077	      1.18525244	      0.38697371	      6.38716590	    -17.46677888	     39.24356506	      4.57820171	    -44.11131758	     31.15845819	      0.00000000	     88.34718803	      6.49719929	    -39.99999995	     88.24322161	     -2.62781204	    -35.00000000	      0.00000000	     -8.33837614	    -31.95493298	     -6.29644886	    105.84571536	     46.05176907	      3.05509941	     36.38444121	     73.72095509	    140.68222412	    -35.21455023	     91.79040993	     38.83047258	      2.36633248
      0.08333330	    -20.11165617	     10.87541713	     21.50966090	      2.51076754	      1.18130023	      0.37142988	      7.85985203	    -16.13637039	     39.99999995	      4.73576200	    -45.93454053	     31.36371039	      0.00000000	     91.60765632	      8.15174359	    -39.99999995	     87.24332620	     -5.42605758	    -35.00000000	      0.00000000	     -8.99305374	    -31.11284854	     -4.40903187	    111.88912823	     41.65044862	      1.75238223	     35.52518390	     72.72367814	    139.62227789	    -31.74925879	     88.89270098	     41.38399641	      1.28982932
      0.10000000	    -20.94498409	      8.64987672	     23.04164398	      2.49363171	      1.17140474	      0.34994250	      9.57497404	    -14.89259954	     39.99999995	      5.08724156	    -46.13927415	     32.22593077	      0.00000000	     95.06421267	     10.08567209	    -39.99999995	     85.78373652	     -6.04933091	    -35.00000000	      0.00000000	     -9.14643136	    -28.76035801	     -2.19495889	    116.93241278	     37.29118797	      0.84398231	     33.62891414	     67.58111008	    135.40982751	    -28.56162994	     74.70830552	     42.07591746	      0.00000000
      0.11666670	    -21.46996967	      6.11719620	     24.47110214	      2.48218778	      1.16999052	      0.32999108	     10.93966126	    -13.41385607	     39.99999995	      5.42860059	    -45.32600071	     32.84234355	      0.00000000	     96.85796711	     11.66359811	    -39.99999995	     84.48889808	     -6.24817253	    -35.00000000	      0.00000000	     -9.23464529	    -25.99448974	     -1.76686634	    119.86905910	     32.96560552	      0.34373072	     34.09585326	     64.14222452	    134.16807819	    -26.40341207	     68.63961296	     41.45160086	      0.00000000
      0.13333330	    -22.21975845	      3.44337988	     25.97911018	      2.47030311	      1.16232942	      0.30579225	     12.51561185	    -12.34437474	     39.99999995	      5.85786098	    -43.83977636	     33.25408611	      0.00000000	     98.91450500	     13.26932718	    -39.99999995	     82.57094620	     -5.39808776	    -35.00000000	      0.00000000	     -9.08870731	    -23.07809236	     -2.38092704	    122.30967517	     28.59321765	     -0.97954098	     36.27769992	     61.12604287	    134.73285649	    -24.97509346	     65.07933799	     40.02013728	      0.00000000
      0.15000000	    -23.05832775	      1.69898095	     28.00528465	      2.46250405	      1.17392250	      0.29110836	     13.34528631	    -12.14746959	     39.99999995	      5.92864073	    -42.41192334	     32.55249265	      0.00000000	     98.28178080	     15.15603516	    -39.99999995	     78.63002673	     -7.73514231	    -35.00000000	      0.00000000	     -9.50594261	    -21.26119375	     -4.17808312	    124.41828554	     24.45080595	     -1.76531941	     38.05121175	     59.14982706	    135.93613055	    -24.06409534	     62.73694097	     38.51770878	      0.00000000
